<?xml version="1.0" encoding="UTF-8"?>
<!DOCTYPE svg PUBLIC "-//W3C//DTD SVG 1.1//EN" "http://www.w3.org/Graphics/SVG/1.1/DTD/svg11.dtd">
<svg xmlns="http://www.w3.org/2000/svg" version="1.1" width="509px" height="496px" style="shape-rendering:geometricPrecision; text-rendering:geometricPrecision; image-rendering:optimizeQuality; fill-rule:evenodd; clip-rule:evenodd" xmlns:xlink="http://www.w3.org/1999/xlink">
<g><path style="opacity:0.996" fill="#40356f" d="M 257.5,41.5 C 263.892,41.7111 269.059,44.3778 273,49.5C 282.164,60.5045 290.331,72.1712 297.5,84.5C 307.231,77.7177 317.731,72.3843 329,68.5C 335.709,69.5404 340.376,73.2071 343,79.5C 346.487,91.1167 349.487,102.783 352,114.5C 364.694,111.315 377.527,110.482 390.5,112C 396.713,115.255 399.713,120.421 399.5,127.5C 398.801,145.863 395.468,163.696 389.5,181C 379.195,181.579 369.028,183.079 359,185.5C 358.228,185.355 357.561,185.022 357,184.5C 355.036,166.012 351.036,148.012 345,130.5C 340.339,124.593 334.505,123.093 327.5,126C 317.708,131.981 308.542,138.814 300,146.5C 292.365,129.893 283.698,113.893 274,98.5C 266.135,85.435 257.135,84.435 247,95.5C 236.368,111.761 227.035,128.761 219,146.5C 210.116,139.282 200.949,132.448 191.5,126C 179.411,123.04 172.245,127.873 170,140.5C 166.471,155.008 163.804,169.675 162,184.5C 161.439,185.022 160.772,185.355 160,185.5C 149.724,183.176 139.39,181.509 129,180.5C 123.246,163.307 120.079,145.641 119.5,127.5C 120.309,116.358 126.309,110.691 137.5,110.5C 147.488,111.027 157.322,112.361 167,114.5C 169.482,102.775 172.482,91.1084 176,79.5C 179.779,70.5263 186.279,67.3597 195.5,70C 204.26,74.4608 212.76,79.2941 221,84.5C 229.485,70.3816 239.318,57.2149 250.5,45C 252.713,43.3838 255.047,42.2172 257.5,41.5 Z"/></g>
<g><path style="opacity:1" fill="#635ecc" d="M 259.5,104.5 C 285.412,139.877 300.746,179.543 305.5,223.5C 275.513,223.181 245.513,223.514 215.5,224.5C 217.681,191.456 226.847,160.456 243,131.5C 248.009,122.138 253.509,113.138 259.5,104.5 Z"/></g>
<g><path style="opacity:1" fill="#625dcb" d="M 183.5,143.5 C 194.271,149.214 203.937,156.381 212.5,165C 208.585,177.838 204.918,190.672 201.5,203.5C 193.073,198.953 184.406,194.953 175.5,191.5C 175.96,175.191 178.627,159.191 183.5,143.5 Z"/></g>
<g><path style="opacity:1" fill="#625dcb" d="M 332.5,143.5 C 333.497,143.47 334.164,143.97 334.5,145C 338.593,159.966 341.593,175.132 343.5,190.5C 333.713,194.648 324.047,198.981 314.5,203.5C 312.651,190.27 309.317,177.436 304.5,165C 313.164,156.821 322.497,149.654 332.5,143.5 Z"/></g>
<g><path style="opacity:0.216" fill="#4a4190" d="M 139.5,200.5 C 138.833,200.5 138.5,200.833 138.5,201.5C 137.957,201.44 137.624,201.107 137.5,200.5C 138.257,199.227 138.923,199.227 139.5,200.5 Z"/></g>
<g><path style="opacity:1" fill="#625dca" d="M 139.5,200.5 C 161.182,202.512 181.182,209.346 199.5,221C 200.406,222.699 200.739,224.533 200.5,226.5C 188.007,227.57 175.674,229.57 163.5,232.5C 152.579,224.246 144.245,213.913 138.5,201.5C 138.5,200.833 138.833,200.5 139.5,200.5 Z"/></g>
<g><path style="opacity:1" fill="#625dca" d="M 374.5,200.5 C 376.857,200.337 379.19,200.503 381.5,201C 375.08,213.329 366.414,223.829 355.5,232.5C 343.675,229.477 331.675,227.477 319.5,226.5C 319.261,224.533 319.594,222.699 320.5,221C 337.338,210.803 355.338,203.97 374.5,200.5 Z"/></g>
<g><path style="opacity:0.986" fill="#40356f" d="M 46.5,323.5 C 88.1667,323.5 129.833,323.5 171.5,323.5C 171.5,325.167 171.5,326.833 171.5,328.5C 166.207,329.446 160.874,330.113 155.5,330.5C 155.5,366.5 155.5,402.5 155.5,438.5C 160.863,438.949 166.196,439.616 171.5,440.5C 171.5,442.167 171.5,443.833 171.5,445.5C 154.833,445.5 138.167,445.5 121.5,445.5C 121.5,443.833 121.5,442.167 121.5,440.5C 126.804,439.616 132.137,438.949 137.5,438.5C 137.5,402.833 137.5,367.167 137.5,331.5C 118.5,331.5 99.5,331.5 80.5,331.5C 80.5,367.167 80.5,402.833 80.5,438.5C 85.8626,438.949 91.196,439.616 96.5,440.5C 96.5,442.167 96.5,443.833 96.5,445.5C 79.8333,445.5 63.1667,445.5 46.5,445.5C 46.5,443.833 46.5,442.167 46.5,440.5C 51.7926,439.554 57.126,438.887 62.5,438.5C 62.5,402.5 62.5,366.5 62.5,330.5C 57.126,330.113 51.7926,329.446 46.5,328.5C 46.5,326.833 46.5,325.167 46.5,323.5 Z"/></g>
<g><path style="opacity:0.985" fill="#40356f" d="M 197.5,323.5 C 214.167,323.5 230.833,323.5 247.5,323.5C 247.5,325.167 247.5,326.833 247.5,328.5C 242.207,329.446 236.874,330.113 231.5,330.5C 231.333,359.502 231.5,388.502 232,417.5C 250.086,390.327 268.419,363.327 287,336.5C 288.128,334.655 288.628,332.655 288.5,330.5C 283.126,330.113 277.793,329.446 272.5,328.5C 272.5,326.833 272.5,325.167 272.5,323.5C 289.167,323.5 305.833,323.5 322.5,323.5C 322.5,325.167 322.5,326.833 322.5,328.5C 317.207,329.446 311.874,330.113 306.5,330.5C 306.5,366.5 306.5,402.5 306.5,438.5C 311.863,438.949 317.196,439.616 322.5,440.5C 322.5,442.167 322.5,443.833 322.5,445.5C 305.833,445.5 289.167,445.5 272.5,445.5C 272.5,443.833 272.5,442.167 272.5,440.5C 277.804,439.616 283.137,438.949 288.5,438.5C 288.667,409.165 288.5,379.831 288,350.5C 269.667,377.5 251.333,404.5 233,431.5C 231.798,433.677 231.298,436.011 231.5,438.5C 236.863,438.949 242.196,439.616 247.5,440.5C 247.5,442.167 247.5,443.833 247.5,445.5C 230.833,445.5 214.167,445.5 197.5,445.5C 197.5,443.833 197.5,442.167 197.5,440.5C 202.793,439.554 208.126,438.887 213.5,438.5C 213.5,402.5 213.5,366.5 213.5,330.5C 208.126,330.113 202.793,329.446 197.5,328.5C 197.5,326.833 197.5,325.167 197.5,323.5 Z"/></g>
<g><path style="opacity:0.989" fill="#403570" d="M 350.5,323.5 C 367.5,323.5 384.5,323.5 401.5,323.5C 401.5,325.167 401.5,326.833 401.5,328.5C 396.489,329.192 391.489,330.026 386.5,331C 398.207,351.582 410.04,372.082 422,392.5C 432.5,372.167 443,351.833 453.5,331.5C 449.595,330.132 445.595,329.132 441.5,328.5C 440.548,326.955 440.215,325.288 440.5,323.5C 452.833,323.5 465.167,323.5 477.5,323.5C 477.5,325.167 477.5,326.833 477.5,328.5C 473.208,329.058 469.041,330.058 465,331.5C 448.333,362.833 431.667,394.167 415,425.5C 409.696,435.473 401.862,442.639 391.5,447C 383.8,448.334 376.467,447.334 369.5,444C 368.519,436.587 368.186,429.087 368.5,421.5C 370.288,421.215 371.955,421.548 373.5,422.5C 379.591,436.024 388.257,437.857 399.5,428C 403.97,422.861 407.637,417.195 410.5,411C 395.383,384.381 380.049,357.881 364.5,331.5C 360.184,330.392 355.851,329.392 351.5,328.5C 350.548,326.955 350.215,325.288 350.5,323.5 Z"/></g>
</svg>
