<svg width="279" height="43" viewBox="0 0 279 43" fill="none" xmlns="http://www.w3.org/2000/svg">
<path d="M2.43467 26H14.7845L22.159 18.2371V0H17.2544V10.4371H9.84454L4.93991 5.23714V0H0V7.83714L7.37458 15.6371H17.2544L12.3145 20.8H2.43467V26Z" fill="#282828"/>
<path d="M30.2914 26V15.6371H42.6059V26H47.5105V0H42.6059V10.4371H30.2914V0H25.3515V26H30.2914Z" fill="#282828"/>
<path d="M55.9627 26L68.2772 8.65429V26H73.1818V0H68.2772L55.9627 17.3086V0H51.0228V26H55.9627Z" fill="#282828"/>
<path d="M81.634 20.8V15.6371H93.9485V20.8H81.634ZM81.634 10.4371V5.2H93.9485V10.4371H81.634ZM96.4184 26L98.8531 23.4371V15.6371L96.4184 13.0371L98.8531 10.4371V2.63714L96.4184 0H76.6941V26H96.4184Z" fill="#282828"/>
<path d="M123.325 26V20.8H107.305V15.6371H122.09V10.4371H107.305V5.2H123.325V0H102.365V26H123.325Z" fill="#282828"/>
<path d="M131.426 13.0371V5.2H143.74V13.0371H131.426ZM131.426 26V18.2371H146.21L148.645 15.6371V2.63714L146.21 0H126.486V26H131.426Z" fill="#282828"/>
<path d="M156.753 26V8.46857L163.351 18.46H167.479L173.936 8.46857V26H178.876V0H174.113L165.362 12.5914L156.753 0H151.813V26H156.753Z" fill="#282828"/>
<path d="M186.999 13.0371V10.4371L191.903 5.2H199.313V13.0371H186.999ZM186.999 26V18.2371H199.313V26H204.218V0H189.433L182.059 7.83714V26H186.999Z" fill="#282828"/>
<path d="M212.678 26V5.2H228.698V0H207.738V26H212.678Z" fill="#282828"/>
<path d="M236.11 26L248.424 8.65429V26H253.329V0H248.424L236.11 17.3086V0H231.17V26H236.11Z" fill="#282828"/>
<path d="M261.781 13.0371V5.2H274.095V13.0371H261.781ZM261.781 26V23.4371L266.686 18.2371H274.095V26H279V0H259.276L256.841 2.63714V15.6371L259.276 18.2371L256.841 20.8V26H261.781Z" fill="#282828"/>
<path d="M7.05966 39.1619L6.96023 41.7188H6.05114V40H5.53977V39.1619H7.05966ZM0.880682 40V32.7273H1.71875V39.1903H5.46875V32.7273H6.30682V40H0.880682ZM10.5637 40.1136C10.0382 40.1136 9.58481 39.9976 9.20366 39.7656C8.82487 39.5312 8.53249 39.2045 8.32653 38.7855C8.12293 38.3641 8.02113 37.8741 8.02113 37.3153C8.02113 36.7566 8.12293 36.2642 8.32653 35.8381C8.53249 35.4096 8.81895 35.0758 9.1859 34.8366C9.55522 34.5952 9.98609 34.4744 10.4785 34.4744C10.7626 34.4744 11.0431 34.5218 11.3201 34.6165C11.5971 34.7112 11.8493 34.8651 12.0765 35.0781C12.3038 35.2888 12.4849 35.5682 12.6199 35.9162C12.7548 36.2642 12.8223 36.6927 12.8223 37.2017V37.5568H8.61772V36.8324H11.97C11.97 36.5246 11.9084 36.25 11.7853 36.0085C11.6646 35.767 11.4918 35.5765 11.2669 35.4368C11.0443 35.2971 10.7815 35.2273 10.4785 35.2273C10.1447 35.2273 9.85588 35.3101 9.61204 35.4759C9.37056 35.6392 9.18472 35.8523 9.05451 36.1151C8.9243 36.3778 8.8592 36.6596 8.8592 36.9602V37.4432C8.8592 37.8551 8.93022 38.2043 9.07227 38.4908C9.21668 38.7749 9.41673 38.9915 9.67241 39.1406C9.92809 39.2874 10.2252 39.3608 10.5637 39.3608C10.7839 39.3608 10.9828 39.33 11.1603 39.2685C11.3403 39.2045 11.4953 39.1098 11.6255 38.9844C11.7557 38.8565 11.8564 38.6979 11.9274 38.5085L12.737 38.7358C12.6518 39.0104 12.5086 39.2519 12.3074 39.4602C12.1061 39.6662 11.8575 39.8272 11.5616 39.9432C11.2657 40.0568 10.9331 40.1136 10.5637 40.1136ZM17.7477 36.8892V37.6705H14.7363V36.8892H17.7477ZM14.9352 34.5455V40H14.0971V34.5455H14.9352ZM18.3869 34.5455V40H17.5488V34.5455H18.3869ZM19.1752 35.3267V34.5455H23.6071V35.3267H21.8173V40H20.9792V35.3267H19.1752ZM24.8295 42.0455V34.5455H25.6392V35.4119H25.7386C25.8002 35.3172 25.8854 35.1965 25.9943 35.0497C26.1056 34.9006 26.2642 34.768 26.4702 34.652C26.6785 34.5336 26.9602 34.4744 27.3153 34.4744C27.7746 34.4744 28.1795 34.5893 28.5298 34.8189C28.8802 35.0485 29.1536 35.3741 29.3501 35.7955C29.5466 36.2169 29.6449 36.714 29.6449 37.2869C29.6449 37.8646 29.5466 38.3653 29.3501 38.7891C29.1536 39.2105 28.8814 39.5372 28.5334 39.7692C28.1854 39.9988 27.7841 40.1136 27.3295 40.1136C26.9792 40.1136 26.6986 40.0556 26.4879 39.9396C26.2772 39.8213 26.1151 39.6875 26.0014 39.5384C25.8878 39.3868 25.8002 39.2614 25.7386 39.1619H25.6676V42.0455H24.8295ZM25.6534 37.2727C25.6534 37.6847 25.7138 38.0481 25.8345 38.3629C25.9553 38.6754 26.1316 38.9205 26.3636 39.098C26.5956 39.2732 26.8797 39.3608 27.2159 39.3608C27.5663 39.3608 27.8587 39.2685 28.093 39.0838C28.3298 38.8968 28.5073 38.6458 28.6257 38.331C28.7464 38.0137 28.8068 37.661 28.8068 37.2727C28.8068 36.8892 28.7476 36.5436 28.6293 36.2358C28.5133 35.9257 28.3369 35.6806 28.1001 35.5007C27.8658 35.3184 27.571 35.2273 27.2159 35.2273C26.875 35.2273 26.5885 35.3137 26.3565 35.4865C26.1245 35.657 25.9493 35.8961 25.831 36.2038C25.7126 36.5092 25.6534 36.8655 25.6534 37.2727ZM33.7358 42.0455V34.5455H34.5455V35.4119H34.6449C34.7064 35.3172 34.7917 35.1965 34.9006 35.0497C35.0118 34.9006 35.1705 34.768 35.3764 34.652C35.5848 34.5336 35.8665 34.4744 36.2216 34.4744C36.6809 34.4744 37.0857 34.5893 37.4361 34.8189C37.7865 35.0485 38.0599 35.3741 38.2564 35.7955C38.4529 36.2169 38.5511 36.714 38.5511 37.2869C38.5511 37.8646 38.4529 38.3653 38.2564 38.7891C38.0599 39.2105 37.7876 39.5372 37.4396 39.7692C37.0916 39.9988 36.6903 40.1136 36.2358 40.1136C35.8854 40.1136 35.6049 40.0556 35.3942 39.9396C35.1835 39.8213 35.0213 39.6875 34.9077 39.5384C34.794 39.3868 34.7064 39.2614 34.6449 39.1619H34.5739V42.0455H33.7358ZM34.5597 37.2727C34.5597 37.6847 34.62 38.0481 34.7408 38.3629C34.8615 38.6754 35.0379 38.9205 35.2699 39.098C35.5019 39.2732 35.786 39.3608 36.1222 39.3608C36.4725 39.3608 36.7649 39.2685 36.9993 39.0838C37.236 38.8968 37.4136 38.6458 37.532 38.331C37.6527 38.0137 37.7131 37.661 37.7131 37.2727C37.7131 36.8892 37.6539 36.5436 37.5355 36.2358C37.4195 35.9257 37.2431 35.6806 37.0064 35.5007C36.772 35.3184 36.4773 35.2273 36.1222 35.2273C35.7813 35.2273 35.4948 35.3137 35.2628 35.4865C35.0308 35.657 34.8556 35.8961 34.7372 36.2038C34.6188 36.5092 34.5597 36.8655 34.5597 37.2727ZM41.4347 40.1278C41.089 40.1278 40.7753 40.0627 40.4936 39.9325C40.2119 39.8 39.9882 39.6094 39.8224 39.3608C39.6567 39.1098 39.5739 38.8068 39.5739 38.4517C39.5739 38.1392 39.6354 37.8859 39.7585 37.6918C39.8816 37.4953 40.0462 37.3414 40.2521 37.2301C40.4581 37.1188 40.6854 37.036 40.9339 36.9815C41.1849 36.9247 41.437 36.8797 41.6903 36.8466C42.0218 36.804 42.2905 36.772 42.4964 36.7507C42.7048 36.727 42.8563 36.688 42.951 36.6335C43.0481 36.5791 43.0966 36.4844 43.0966 36.3494V36.321C43.0966 35.9706 43.0007 35.6984 42.8089 35.5043C42.6196 35.3101 42.3319 35.2131 41.946 35.2131C41.5459 35.2131 41.2322 35.3007 41.005 35.4759C40.7777 35.651 40.6179 35.8381 40.5256 36.0369L39.7301 35.7528C39.8722 35.4214 40.0616 35.1634 40.2983 34.9787C40.5374 34.7917 40.7978 34.6615 41.0795 34.5881C41.3636 34.5123 41.643 34.4744 41.9176 34.4744C42.0928 34.4744 42.294 34.4957 42.5213 34.5384C42.7509 34.5786 42.9723 34.6626 43.1854 34.7905C43.4008 34.9183 43.5795 35.1113 43.7216 35.3693C43.8636 35.6274 43.9347 35.973 43.9347 36.4062V40H43.0966V39.2614H43.054C42.9972 39.3797 42.9025 39.5064 42.7699 39.6413C42.6373 39.7763 42.4609 39.8911 42.2408 39.9858C42.0206 40.0805 41.7519 40.1278 41.4347 40.1278ZM41.5625 39.375C41.8939 39.375 42.1733 39.3099 42.4006 39.1797C42.6302 39.0495 42.803 38.8814 42.919 38.6754C43.0374 38.4695 43.0966 38.2528 43.0966 38.0256V37.2585C43.0611 37.3011 42.983 37.3402 42.8622 37.3757C42.7438 37.4089 42.6065 37.4384 42.4503 37.4645C42.2964 37.4882 42.1461 37.5095 41.9993 37.5284C41.8549 37.545 41.7377 37.5592 41.6477 37.571C41.4299 37.5994 41.2263 37.6456 41.0369 37.7095C40.8499 37.7711 40.6984 37.8646 40.5824 37.9901C40.4688 38.1132 40.4119 38.2812 40.4119 38.4943C40.4119 38.7855 40.5196 39.0057 40.7351 39.1548C40.9529 39.3016 41.2287 39.375 41.5625 39.375ZM45.1234 38.608H46.0183C46.0372 38.8542 46.1485 39.0412 46.3521 39.169C46.5581 39.2969 46.8256 39.3608 47.1547 39.3608C47.4908 39.3608 47.7785 39.2921 48.0176 39.1548C48.2567 39.0152 48.3762 38.7902 48.3762 38.4801C48.3762 38.2978 48.3313 38.1392 48.2413 38.0043C48.1513 37.867 48.0247 37.7604 47.8613 37.6847C47.698 37.6089 47.505 37.571 47.2825 37.571H46.345V36.8182H47.2825C47.6163 36.8182 47.8625 36.7424 48.0211 36.5909C48.1821 36.4394 48.2626 36.25 48.2626 36.0227C48.2626 35.7789 48.1762 35.5836 48.0034 35.4368C47.8306 35.2876 47.5855 35.2131 47.2683 35.2131C46.9487 35.2131 46.6824 35.2853 46.4693 35.4297C46.2562 35.5717 46.1438 35.7552 46.1319 35.9801H45.2512C45.2607 35.6866 45.3507 35.4273 45.5211 35.2024C45.6916 34.9751 45.9236 34.7976 46.2172 34.6697C46.5107 34.5395 46.8469 34.4744 47.2257 34.4744C47.6092 34.4744 47.9418 34.5419 48.2235 34.6768C48.5076 34.8094 48.7266 34.9905 48.8805 35.2202C49.0368 35.4474 49.1149 35.7055 49.1149 35.9943C49.1149 36.3021 49.0285 36.5507 48.8556 36.7401C48.6828 36.9295 48.4662 37.0644 48.2058 37.1449V37.2017C48.4118 37.2159 48.5905 37.2822 48.742 37.4006C48.8959 37.5166 49.0154 37.6693 49.1007 37.8587C49.1859 38.0457 49.2285 38.2528 49.2285 38.4801C49.2285 38.8116 49.1397 39.1004 48.9622 39.3466C48.7846 39.5904 48.5408 39.7798 48.2306 39.9148C47.9205 40.0473 47.5666 40.1136 47.1689 40.1136C46.783 40.1136 46.4373 40.0509 46.1319 39.9254C45.8265 39.7976 45.5839 39.6212 45.4039 39.3963C45.2264 39.169 45.1329 38.9062 45.1234 38.608ZM50.4057 40V34.5455H52.6358C53.223 34.5455 53.6893 34.678 54.035 34.9432C54.3806 35.2083 54.5534 35.5587 54.5534 35.9943C54.5534 36.3258 54.4552 36.5826 54.2587 36.7649C54.0622 36.9448 53.8101 37.0668 53.5023 37.1307C53.7035 37.1591 53.8989 37.2301 54.0882 37.3438C54.28 37.4574 54.4386 37.6136 54.5641 37.8125C54.6896 38.009 54.7523 38.2505 54.7523 38.5369C54.7523 38.8163 54.6813 39.0661 54.5392 39.2862C54.3972 39.5064 54.1936 39.6804 53.9284 39.8082C53.6633 39.9361 53.3461 40 52.9767 40H50.4057ZM51.2012 39.233H52.9767C53.2656 39.233 53.4917 39.1643 53.655 39.027C53.8184 38.8897 53.9 38.7027 53.9 38.4659C53.9 38.1842 53.8184 37.9628 53.655 37.8018C53.4917 37.6385 53.2656 37.5568 52.9767 37.5568H51.2012V39.233ZM51.2012 36.8324H52.6358C52.8607 36.8324 53.0537 36.8016 53.2147 36.7401C53.3757 36.6761 53.4988 36.5862 53.584 36.4702C53.6716 36.3518 53.7154 36.2121 53.7154 36.0511C53.7154 35.8215 53.6195 35.6416 53.4277 35.5114C53.236 35.3788 52.972 35.3125 52.6358 35.3125H51.2012V36.8324ZM56.859 38.7642L59.4869 34.5455H60.4528V40H59.6147V35.7812L57.0011 40H56.021V34.5455H56.859V38.7642ZM61.2456 35.3267V34.5455H65.6774V35.3267H63.8876V40H63.0495V35.3267H61.2456ZM67.7379 38.7642L70.3658 34.5455H71.3317V40H70.4936V35.7812L67.88 40H66.8999V34.5455H67.7379V38.7642ZM76.1479 40V35.3125H74.699C74.3723 35.3125 74.1155 35.3883 73.9284 35.5398C73.7414 35.6913 73.6479 35.8996 73.6479 36.1648C73.6479 36.4252 73.7319 36.63 73.9 36.7791C74.0705 36.9283 74.3037 37.0028 74.5996 37.0028H76.361V37.7841H74.5996C74.2303 37.7841 73.9119 37.719 73.6444 37.5888C73.3768 37.4586 73.1709 37.2727 73.0265 37.0312C72.882 36.7874 72.8098 36.4986 72.8098 36.1648C72.8098 35.8286 72.8856 35.5398 73.0371 35.2983C73.1886 35.0568 73.4052 34.871 73.687 34.7408C73.9711 34.6106 74.3084 34.5455 74.699 34.5455H76.9434V40H76.1479ZM72.5115 40L74.0598 37.2869H74.9689L73.4206 40H72.5115ZM81.2944 40V34.5455H82.1325V36.9176H82.6864L84.6467 34.5455H85.7262L83.5245 37.1733L85.7546 40H84.6751L82.8853 37.6989H82.1325V40H81.2944ZM88.6568 40.1136C88.1644 40.1136 87.7323 39.9964 87.3606 39.7621C86.9913 39.5277 86.7025 39.1998 86.4941 38.7784C86.2882 38.357 86.1852 37.8646 86.1852 37.3011C86.1852 36.733 86.2882 36.237 86.4941 35.8132C86.7025 35.3894 86.9913 35.0604 87.3606 34.826C87.7323 34.5916 88.1644 34.4744 88.6568 34.4744C89.1492 34.4744 89.5801 34.5916 89.9494 34.826C90.3211 35.0604 90.6099 35.3894 90.8159 35.8132C91.0242 36.237 91.1284 36.733 91.1284 37.3011C91.1284 37.8646 91.0242 38.357 90.8159 38.7784C90.6099 39.1998 90.3211 39.5277 89.9494 39.7621C89.5801 39.9964 89.1492 40.1136 88.6568 40.1136ZM88.6568 39.3608C89.0308 39.3608 89.3386 39.2649 89.5801 39.0732C89.8216 38.8814 90.0003 38.6293 90.1163 38.3168C90.2323 38.0043 90.2903 37.6657 90.2903 37.3011C90.2903 36.9366 90.2323 36.5968 90.1163 36.282C90.0003 35.9671 89.8216 35.7126 89.5801 35.5185C89.3386 35.3243 89.0308 35.2273 88.6568 35.2273C88.2827 35.2273 87.975 35.3243 87.7335 35.5185C87.492 35.7126 87.3133 35.9671 87.1973 36.282C87.0813 36.5968 87.0233 36.9366 87.0233 37.3011C87.0233 37.6657 87.0813 38.0043 87.1973 38.3168C87.3133 38.6293 87.492 38.8814 87.7335 39.0732C87.975 39.2649 88.2827 39.3608 88.6568 39.3608ZM95.3906 38.8636L97.294 34.5455H98.0895L95.7315 40H95.0497L92.7344 34.5455H93.5156L95.3906 38.8636ZM93.2457 34.5455V40H92.4077V34.5455H93.2457ZM97.5355 40V34.5455H98.3736V40H97.5355ZM99.9077 40V34.5455H104.197V40H103.359V35.3267H100.746V40H99.9077ZM108.015 40.1136C107.489 40.1136 107.036 39.9976 106.655 39.7656C106.276 39.5312 105.984 39.2045 105.778 38.7855C105.574 38.3641 105.472 37.8741 105.472 37.3153C105.472 36.7566 105.574 36.2642 105.778 35.8381C105.984 35.4096 106.27 35.0758 106.637 34.8366C107.006 34.5952 107.437 34.4744 107.93 34.4744C108.214 34.4744 108.494 34.5218 108.771 34.6165C109.048 34.7112 109.3 34.8651 109.528 35.0781C109.755 35.2888 109.936 35.5682 110.071 35.9162C110.206 36.2642 110.273 36.6927 110.273 37.2017V37.5568H106.069V36.8324H109.421C109.421 36.5246 109.36 36.25 109.237 36.0085C109.116 35.767 108.943 35.5765 108.718 35.4368C108.496 35.2971 108.233 35.2273 107.93 35.2273C107.596 35.2273 107.307 35.3101 107.063 35.4759C106.822 35.6392 106.636 35.8523 106.506 36.1151C106.375 36.3778 106.31 36.6596 106.31 36.9602V37.4432C106.31 37.8551 106.381 38.2043 106.523 38.4908C106.668 38.7749 106.868 38.9915 107.124 39.1406C107.379 39.2874 107.676 39.3608 108.015 39.3608C108.235 39.3608 108.434 39.33 108.612 39.2685C108.791 39.2045 108.946 39.1098 109.077 38.9844C109.207 38.8565 109.308 38.6979 109.379 38.5085L110.188 38.7358C110.103 39.0104 109.96 39.2519 109.759 39.4602C109.557 39.6662 109.309 39.8272 109.013 39.9432C108.717 40.0568 108.384 40.1136 108.015 40.1136ZM111.04 35.3267V34.5455H115.472V35.3267H113.683V40H112.844V35.3267H111.04ZM118.699 40.1136C118.173 40.1136 117.72 39.9976 117.338 39.7656C116.96 39.5312 116.667 39.2045 116.461 38.7855C116.258 38.3641 116.156 37.8741 116.156 37.3153C116.156 36.7566 116.258 36.2642 116.461 35.8381C116.667 35.4096 116.954 35.0758 117.321 34.8366C117.69 34.5952 118.121 34.4744 118.613 34.4744C118.897 34.4744 119.178 34.5218 119.455 34.6165C119.732 34.7112 119.984 34.8651 120.211 35.0781C120.439 35.2888 120.62 35.5682 120.755 35.9162C120.89 36.2642 120.957 36.6927 120.957 37.2017V37.5568H116.752V36.8324H120.105C120.105 36.5246 120.043 36.25 119.92 36.0085C119.799 35.767 119.627 35.5765 119.402 35.4368C119.179 35.2971 118.916 35.2273 118.613 35.2273C118.279 35.2273 117.991 35.3101 117.747 35.4759C117.505 35.6392 117.319 35.8523 117.189 36.1151C117.059 36.3778 116.994 36.6596 116.994 36.9602V37.4432C116.994 37.8551 117.065 38.2043 117.207 38.4908C117.351 38.7749 117.551 38.9915 117.807 39.1406C118.063 39.2874 118.36 39.3608 118.699 39.3608C118.919 39.3608 119.118 39.33 119.295 39.2685C119.475 39.2045 119.63 39.1098 119.76 38.9844C119.891 38.8565 119.991 38.6979 120.062 38.5085L120.872 38.7358C120.787 39.0104 120.643 39.2519 120.442 39.4602C120.241 39.6662 119.992 39.8272 119.696 39.9432C119.4 40.0568 119.068 40.1136 118.699 40.1136ZM125.882 36.8892V37.6705H122.871V36.8892H125.882ZM123.07 34.5455V40H122.232V34.5455H123.07ZM126.522 34.5455V40H125.684V34.5455H126.522ZM132.342 34.5455V39.2188H133.109V41.7614H132.271V40H128.052V34.5455H128.89V39.2188H131.504V34.5455H132.342ZM135.238 38.7642L137.866 34.5455H138.832V40H137.994V35.7812L135.38 40H134.4V34.5455H135.238V38.7642ZM141.205 38.7642L143.833 34.5455H144.798V40H143.96V35.7812L141.347 40H140.367V34.5455H141.205V38.7642ZM143.279 32.7273H144.06C144.06 33.1108 143.927 33.4245 143.662 33.6683C143.397 33.9122 143.037 34.0341 142.583 34.0341C142.135 34.0341 141.779 33.9122 141.514 33.6683C141.251 33.4245 141.119 33.1108 141.119 32.7273H141.901C141.901 32.9119 141.952 33.0741 142.053 33.2138C142.158 33.3535 142.334 33.4233 142.583 33.4233C142.831 33.4233 143.009 33.3535 143.115 33.2138C143.224 33.0741 143.279 32.9119 143.279 32.7273ZM149.146 40V34.5455H151.376C151.963 34.5455 152.43 34.678 152.775 34.9432C153.121 35.2083 153.294 35.5587 153.294 35.9943C153.294 36.3258 153.195 36.5826 152.999 36.7649C152.802 36.9448 152.55 37.0668 152.243 37.1307C152.444 37.1591 152.639 37.2301 152.828 37.3438C153.02 37.4574 153.179 37.6136 153.304 37.8125C153.43 38.009 153.493 38.2505 153.493 38.5369C153.493 38.8163 153.422 39.0661 153.279 39.2862C153.137 39.5064 152.934 39.6804 152.669 39.8082C152.404 39.9361 152.086 40 151.717 40H149.146ZM149.941 39.233H151.717C152.006 39.233 152.232 39.1643 152.395 39.027C152.559 38.8897 152.64 38.7027 152.64 38.4659C152.64 38.1842 152.559 37.9628 152.395 37.8018C152.232 37.6385 152.006 37.5568 151.717 37.5568H149.941V39.233ZM149.941 36.8324H151.376C151.601 36.8324 151.794 36.8016 151.955 36.7401C152.116 36.6761 152.239 36.5862 152.324 36.4702C152.412 36.3518 152.456 36.2121 152.456 36.0511C152.456 35.8215 152.36 35.6416 152.168 35.5114C151.976 35.3788 151.712 35.3125 151.376 35.3125H149.941V36.8324ZM160.557 38.8636L162.46 34.5455H163.256L160.898 40H160.216L157.9 34.5455H158.682L160.557 38.8636ZM158.412 34.5455V40H157.574V34.5455H158.412ZM162.702 40V34.5455H163.54V40H162.702ZM166.679 40.1278C166.333 40.1278 166.019 40.0627 165.738 39.9325C165.456 39.8 165.232 39.6094 165.067 39.3608C164.901 39.1098 164.818 38.8068 164.818 38.4517C164.818 38.1392 164.88 37.8859 165.003 37.6918C165.126 37.4953 165.29 37.3414 165.496 37.2301C165.702 37.1188 165.93 37.036 166.178 36.9815C166.429 36.9247 166.681 36.8797 166.934 36.8466C167.266 36.804 167.535 36.772 167.741 36.7507C167.949 36.727 168.1 36.688 168.195 36.6335C168.292 36.5791 168.341 36.4844 168.341 36.3494V36.321C168.341 35.9706 168.245 35.6984 168.053 35.5043C167.864 35.3101 167.576 35.2131 167.19 35.2131C166.79 35.2131 166.476 35.3007 166.249 35.4759C166.022 35.651 165.862 35.8381 165.77 36.0369L164.974 35.7528C165.116 35.4214 165.306 35.1634 165.542 34.9787C165.782 34.7917 166.042 34.6615 166.324 34.5881C166.608 34.5123 166.887 34.4744 167.162 34.4744C167.337 34.4744 167.538 34.4957 167.765 34.5384C167.995 34.5786 168.216 34.6626 168.43 34.7905C168.645 34.9183 168.824 35.1113 168.966 35.3693C169.108 35.6274 169.179 35.973 169.179 36.4062V40H168.341V39.2614H168.298C168.241 39.3797 168.147 39.5064 168.014 39.6413C167.881 39.7763 167.705 39.8911 167.485 39.9858C167.265 40.0805 166.996 40.1278 166.679 40.1278ZM166.807 39.375C167.138 39.375 167.417 39.3099 167.645 39.1797C167.874 39.0495 168.047 38.8814 168.163 38.6754C168.282 38.4695 168.341 38.2528 168.341 38.0256V37.2585C168.305 37.3011 168.227 37.3402 168.106 37.3757C167.988 37.4089 167.851 37.4384 167.694 37.4645C167.541 37.4882 167.39 37.5095 167.243 37.5284C167.099 37.545 166.982 37.5592 166.892 37.571C166.674 37.5994 166.47 37.6456 166.281 37.7095C166.094 37.7711 165.943 37.8646 165.827 37.9901C165.713 38.1132 165.656 38.2812 165.656 38.4943C165.656 38.7855 165.764 39.0057 165.979 39.1548C166.197 39.3016 166.473 39.375 166.807 39.375ZM170.708 42.0455V34.5455H171.518V35.4119H171.618C171.679 35.3172 171.764 35.1965 171.873 35.0497C171.984 34.9006 172.143 34.768 172.349 34.652C172.557 34.5336 172.839 34.4744 173.194 34.4744C173.654 34.4744 174.058 34.5893 174.409 34.8189C174.759 35.0485 175.033 35.3741 175.229 35.7955C175.426 36.2169 175.524 36.714 175.524 37.2869C175.524 37.8646 175.426 38.3653 175.229 38.7891C175.033 39.2105 174.76 39.5372 174.412 39.7692C174.064 39.9988 173.663 40.1136 173.208 40.1136C172.858 40.1136 172.578 40.0556 172.367 39.9396C172.156 39.8213 171.994 39.6875 171.88 39.5384C171.767 39.3868 171.679 39.2614 171.618 39.1619H171.547V42.0455H170.708ZM171.532 37.2727C171.532 37.6847 171.593 38.0481 171.713 38.3629C171.834 38.6754 172.011 38.9205 172.243 39.098C172.475 39.2732 172.759 39.3608 173.095 39.3608C173.445 39.3608 173.738 39.2685 173.972 39.0838C174.209 38.8968 174.386 38.6458 174.505 38.331C174.625 38.0137 174.686 37.661 174.686 37.2727C174.686 36.8892 174.627 36.5436 174.508 36.2358C174.392 35.9257 174.216 35.6806 173.979 35.5007C173.745 35.3184 173.45 35.2273 173.095 35.2273C172.754 35.2273 172.467 35.3137 172.235 35.4865C172.003 35.657 171.828 35.8961 171.71 36.2038C171.592 36.5092 171.532 36.8655 171.532 37.2727ZM176.802 40V34.5455H177.64V36.9176H178.194L180.154 34.5455H181.234L179.032 37.1733L181.262 40H180.183L178.393 37.6989H177.64V40H176.802ZM184.236 40.1136C183.71 40.1136 183.257 39.9976 182.876 39.7656C182.497 39.5312 182.204 39.2045 181.998 38.7855C181.795 38.3641 181.693 37.8741 181.693 37.3153C181.693 36.7566 181.795 36.2642 181.998 35.8381C182.204 35.4096 182.491 35.0758 182.858 34.8366C183.227 34.5952 183.658 34.4744 184.15 34.4744C184.434 34.4744 184.715 34.5218 184.992 34.6165C185.269 34.7112 185.521 34.8651 185.748 35.0781C185.976 35.2888 186.157 35.5682 186.292 35.9162C186.427 36.2642 186.494 36.6927 186.494 37.2017V37.5568H182.29V36.8324H185.642C185.642 36.5246 185.58 36.25 185.457 36.0085C185.336 35.767 185.164 35.5765 184.939 35.4368C184.716 35.2971 184.453 35.2273 184.15 35.2273C183.817 35.2273 183.528 35.3101 183.284 35.4759C183.042 35.6392 182.857 35.8523 182.726 36.1151C182.596 36.3778 182.531 36.6596 182.531 36.9602V37.4432C182.531 37.8551 182.602 38.2043 182.744 38.4908C182.889 38.7749 183.089 38.9915 183.344 39.1406C183.6 39.2874 183.897 39.3608 184.236 39.3608C184.456 39.3608 184.655 39.33 184.832 39.2685C185.012 39.2045 185.167 39.1098 185.297 38.9844C185.428 38.8565 185.528 38.6979 185.599 38.5085L186.409 38.7358C186.324 39.0104 186.18 39.2519 185.979 39.4602C185.778 39.6662 185.529 39.8272 185.233 39.9432C184.938 40.0568 184.605 40.1136 184.236 40.1136ZM187.261 35.3267V34.5455H191.693V35.3267H189.903V40H189.065V35.3267H187.261ZM193.754 38.7642L196.381 34.5455H197.347V40H196.509V35.7812L193.896 40H192.915V34.5455H193.754V38.7642ZM202.533 36.8892V37.6705H199.521V36.8892H202.533ZM199.72 34.5455V40H198.882V34.5455H199.72ZM203.172 34.5455V40H202.334V34.5455H203.172ZM208.069 34.5455V35.3267H205.541V40H204.703V34.5455H208.069ZM211.296 40.1136C210.771 40.1136 210.317 39.9976 209.936 39.7656C209.557 39.5312 209.265 39.2045 209.059 38.7855C208.855 38.3641 208.754 37.8741 208.754 37.3153C208.754 36.7566 208.855 36.2642 209.059 35.8381C209.265 35.4096 209.551 35.0758 209.918 34.8366C210.288 34.5952 210.719 34.4744 211.211 34.4744C211.495 34.4744 211.776 34.5218 212.053 34.6165C212.33 34.7112 212.582 34.8651 212.809 35.0781C213.036 35.2888 213.217 35.5682 213.352 35.9162C213.487 36.2642 213.555 36.6927 213.555 37.2017V37.5568H209.35V36.8324H212.702C212.702 36.5246 212.641 36.25 212.518 36.0085C212.397 35.767 212.224 35.5765 211.999 35.4368C211.777 35.2971 211.514 35.2273 211.211 35.2273C210.877 35.2273 210.588 35.3101 210.344 35.4759C210.103 35.6392 209.917 35.8523 209.787 36.1151C209.657 36.3778 209.592 36.6596 209.592 36.9602V37.4432C209.592 37.8551 209.663 38.2043 209.805 38.4908C209.949 38.7749 210.149 38.9915 210.405 39.1406C210.661 39.2874 210.958 39.3608 211.296 39.3608C211.516 39.3608 211.715 39.33 211.893 39.2685C212.073 39.2045 212.228 39.1098 212.358 38.9844C212.488 38.8565 212.589 38.6979 212.66 38.5085L213.469 38.7358C213.384 39.0104 213.241 39.2519 213.04 39.4602C212.839 39.6662 212.59 39.8272 212.294 39.9432C211.998 40.0568 211.665 40.1136 211.296 40.1136ZM218.864 30.3835V42.3438H218.153V30.3835H218.864ZM223.84 32.7273H224.72V39.1903H227.277V32.7273H228.158V39.1903H230.715V32.7273H231.595V40H223.84V32.7273ZM237.807 36.0653V36.8466H234.81V36.0653H237.807ZM233.077 37.7273H233.986C234.064 38.2386 234.237 38.6316 234.505 38.9062C234.772 39.1809 235.201 39.3182 235.79 39.3182C236.207 39.3182 236.555 39.201 236.834 38.9666C237.116 38.7322 237.327 38.4221 237.466 38.0362C237.608 37.6503 237.679 37.2301 237.679 36.7756V35.9659C237.679 35.464 237.6 35.0225 237.441 34.6413C237.285 34.2578 237.059 33.9595 236.763 33.7464C236.47 33.531 236.117 33.4233 235.705 33.4233C235.345 33.4233 235.047 33.4872 234.81 33.6151C234.573 33.7429 234.389 33.9264 234.256 34.1655C234.123 34.4046 234.033 34.6922 233.986 35.0284H233.077C233.124 34.5644 233.251 34.1525 233.457 33.7926C233.665 33.4304 233.955 33.1463 234.327 32.9403C234.701 32.732 235.16 32.6278 235.705 32.6278C236.297 32.6278 236.808 32.7663 237.239 33.0433C237.67 33.3179 238.002 33.705 238.237 34.2045C238.471 34.7017 238.588 35.2841 238.588 35.9517V36.7898C238.588 37.4574 238.472 38.0398 238.24 38.5369C238.008 39.0317 237.683 39.4164 237.264 39.6911C236.845 39.9633 236.354 40.0994 235.79 40.0994C235.212 40.0994 234.732 39.9953 234.348 39.7869C233.967 39.5762 233.672 39.2921 233.464 38.9347C233.258 38.5748 233.129 38.1723 233.077 37.7273ZM240.07 32.7273H241.121L243.593 38.7642H243.678L246.15 32.7273H247.201V40H246.377V34.4744H246.306L244.033 40H243.238L240.965 34.4744H240.894V40H240.07V32.7273ZM251.154 41.7614V39.2188H251.623C251.784 39.072 251.935 38.8648 252.077 38.5973C252.222 38.3274 252.344 37.9676 252.443 37.5178C252.545 37.0656 252.612 36.4915 252.646 35.7955L252.802 32.7273H257.12V39.2188H257.958V41.7472H257.12V40H251.992V41.7614H251.154ZM252.674 39.2188H256.282V33.5085H253.597L253.484 35.7955C253.455 36.3258 253.406 36.8063 253.335 37.2372C253.263 37.6657 253.172 38.0457 253.061 38.3771C252.95 38.7062 252.821 38.9867 252.674 39.2188ZM259.289 40V32.7273H261.831C262.338 32.7273 262.756 32.8149 263.085 32.9901C263.414 33.1629 263.659 33.3961 263.82 33.6896C263.981 33.9808 264.062 34.304 264.062 34.6591C264.062 34.9716 264.006 35.2296 263.895 35.4332C263.786 35.6368 263.641 35.7978 263.461 35.9162C263.284 36.0346 263.091 36.1222 262.883 36.179V36.25C263.105 36.2642 263.329 36.3423 263.554 36.4844C263.779 36.6264 263.967 36.83 264.118 37.0952C264.27 37.3603 264.346 37.6847 264.346 38.0682C264.346 38.4328 264.263 38.7607 264.097 39.0518C263.931 39.343 263.67 39.5739 263.312 39.7443C262.955 39.9148 262.49 40 261.917 40H259.289ZM260.17 39.2188H261.917C262.492 39.2188 262.9 39.1075 263.142 38.8849C263.386 38.66 263.508 38.3878 263.508 38.0682C263.508 37.822 263.445 37.5947 263.319 37.3864C263.194 37.1757 263.015 37.0076 262.783 36.8821C262.551 36.7543 262.277 36.6903 261.959 36.6903H260.17V39.2188ZM260.17 35.9233H261.803C262.068 35.9233 262.307 35.8712 262.52 35.767C262.736 35.6629 262.906 35.5161 263.032 35.3267C263.16 35.1373 263.224 34.9148 263.224 34.6591C263.224 34.3395 263.112 34.0684 262.89 33.8459C262.667 33.621 262.314 33.5085 261.831 33.5085H260.17V35.9233ZM268.293 33.5938H269.443C269.983 33.5938 270.463 33.7145 270.882 33.956C271.301 34.1974 271.63 34.5336 271.869 34.9645C272.108 35.3954 272.227 35.8949 272.227 36.4631C272.227 37.0312 272.108 37.532 271.869 37.9652C271.63 38.3984 271.301 38.737 270.882 38.9808C270.463 39.2247 269.983 39.3466 269.443 39.3466H268.293C267.753 39.3466 267.274 39.2259 266.855 38.9844C266.436 38.7429 266.106 38.4067 265.867 37.9759C265.628 37.545 265.509 37.0455 265.509 36.4773C265.509 35.9091 265.628 35.4084 265.867 34.9751C266.106 34.5419 266.436 34.2034 266.855 33.9595C267.274 33.7157 267.753 33.5938 268.293 33.5938ZM268.293 34.375C267.881 34.375 267.533 34.4614 267.249 34.6342C266.967 34.8071 266.753 35.0509 266.606 35.3658C266.462 35.6806 266.389 36.0511 266.389 36.4773C266.389 36.8987 266.462 37.2656 266.606 37.5781C266.753 37.8906 266.967 38.1333 267.249 38.3061C267.533 38.4789 267.881 38.5653 268.293 38.5653H269.443C269.855 38.5653 270.202 38.4789 270.484 38.3061C270.768 38.1333 270.982 37.8894 271.127 37.5746C271.273 37.2597 271.347 36.8892 271.347 36.4631C271.347 36.0417 271.273 35.6747 271.127 35.3622C270.982 35.0497 270.768 34.8071 270.484 34.6342C270.202 34.4614 269.855 34.375 269.443 34.375H268.293ZM269.316 32.5994V40.2983H268.435V32.5994H269.316ZM273.745 40.0994V39.2756H274.199C274.374 39.2756 274.521 39.2412 274.64 39.1726C274.76 39.1039 274.86 39.0152 274.938 38.9062C275.018 38.7973 275.085 38.6837 275.137 38.5653L275.25 38.2955L272.736 32.7273H273.688L275.691 37.2443L277.523 32.7273H278.461L275.946 38.821C275.847 39.0483 275.733 39.259 275.605 39.4531C275.48 39.6473 275.308 39.8035 275.091 39.9219C274.875 40.0402 274.583 40.0994 274.213 40.0994H273.745Z" fill="black"/>
</svg>
